<?xml version="1.0" encoding="UTF-8"?>
<svg width="32px" height="33px" viewBox="0 0 41 65" version="1.1" xmlns="http://www.w3.org/2000/svg" xmlns:xlink="http://www.w3.org/1999/xlink">
    <title>Shape</title>
    <g id="Operations-4:--Generator-covering-load-and-charging-battery-Copy" stroke="none" stroke-width="1" fill="none" fill-rule="evenodd">
        <g id="Retina-Std" transform="translate(-946.000000, -493.000000)">
            <g id="Battery" transform="translate(857.000000, 270.000000)">
                <!-- <circle id="Oval" fill="#FFFFFF" cx="110" cy="257" r="110"></circle> -->
                <g id="case-and-fill" transform="translate(65.000000, 160.000000)">
                    <g id="Group" transform="translate(0.275591, 0.408046)">
                        <g transform="translate(0.000000, 17.000000)">
                            <!-- <rect id="Rectangle-23-Copy-14" stroke="#132E32" stroke-width="5" fill="#F5F5F5" stroke-linejoin="round" x="-2.5" y="8.5" width="97" height="143" rx="4"></rect> -->
                            <rect id="Rectangle" fill="#132E32" x="25" y="0" width="43" height="11" rx="4"></rect>
                        </g>
                    </g>
                </g>
                <path d="M103.645755,288 C103.400794,288 103.15775,287.957215 102.927762,287.873666 C102.031885,287.543093 101.485573,286.642936 101.610979,285.70401 L105.108077,259.563774 L91.0503817,259.563774 C90.2736405,259.563904 89.5635355,259.129116 89.2162837,258.440778 C88.8690319,257.752441 88.9442808,256.928791 89.4106406,256.313409 L114.012301,223.815258 C114.579099,223.064472 115.59075,222.795235 116.461003,223.163569 C117.331256,223.531903 117.83425,224.442212 117.678502,225.366974 L113.970718,247.376624 L127.953565,247.376624 C128.706856,247.377193 129.398979,247.78755 129.755479,248.444973 C130.111255,249.10413 130.076732,249.902877 129.665383,250.529491 L105.364503,287.084076 C104.983209,287.655973 104.337579,288 103.645755,288 L103.645755,288 Z M95,255.820497 L107.302232,255.820497 C107.892703,255.821951 108.454039,256.077476 108.843206,256.521961 C109.232373,256.966447 109.41179,257.55697 109.335739,258.14306 L106.702022,278 L124,251.71647 L111.39697,251.71647 C110.79425,251.717067 110.221889,251.451817 109.832423,250.991411 C109.442958,250.531005 109.275961,249.922223 109.375938,249.327311 L112.099756,233 L95,255.820497 Z" id="Shape" fill="#000000" fill-rule="nonzero"></path>
            </g>
        </g>
    </g>
</svg>