<?xml version="1.0" encoding="iso-8859-1"?>
<!-- Generator: Adobe Illustrator 19.0.0, SVG Export Plug-In . SVG Version: 6.00 Build 0)  -->
<svg version="1.1" id="Capa_1" xmlns="http://www.w3.org/2000/svg" xmlns:xlink="http://www.w3.org/1999/xlink" x="0px" y="0px"
	 viewBox="0 0 503.873 503.873" style="enable-background:new 0 0 503.873 503.873;" xml:space="preserve">
<g>
	<g>
		<path d="M141.003,93.46l23.568-25.194c3.251,1.625,6.502,2.438,10.565,2.438c13.816,0,24.381-11.378,24.381-24.381
			s-11.378-24.381-24.381-24.381c-13.816,0-25.194,11.378-24.381,24.381c0,7.314,2.438,10.565,2.438,10.565L128.813,81.27L47.543,0
			c0,0-41.448,34.133-41.448,92.648c0,30.883,11.378,60.14,32.508,82.895v57.702H22.349v16.254h98.336v-16.254h-16.254V213.74
			c8.127,1.625,16.254,2.438,25.194,2.438c56.889,0,92.648-41.448,92.648-41.448L141.003,93.46z M175.137,38.197
			c4.876,0,8.127,3.251,8.127,8.127c0,4.876-3.251,8.127-8.127,8.127c-4.876,0-8.127-3.251-8.127-8.127
			C167.01,41.448,171.073,38.197,175.137,38.197z M87.365,233.244H54.857v-42.26c9.752,7.314,21.13,13.816,32.508,17.879V233.244z
			 M128.813,199.924c-28.444,0-55.263-11.378-75.581-30.883c-20.318-19.505-30.883-47.137-30.883-75.581
			c0-26.006,8.94-50.387,26.006-69.079l149.537,149.536C178.387,190.171,154.006,199.924,128.813,199.924z"/>
	</g>
</g>
<g>
	<g>
		<path d="M497.778,471.365V290.946H251.53v180.419h65.829v16.254h-16.254v16.254h147.911v-16.254h-16.254v-16.254H497.778z
			 M267.784,307.2h212.927V421.79H267.784V307.2z M415.695,487.619h-82.083v-16.254h82.083V487.619z M267.784,454.298v-16.254
			h212.927v16.254H267.784z"/>
	</g>
</g>
<g>
	<g>
		<rect x="235.276" y="241.371" width="16.254" height="16.254"/>
	</g>
</g>
<g>
	<g>
		<rect x="201.956" y="241.371" width="16.254" height="16.254"/>
	</g>
</g>
<g>
	<g>
		<rect x="267.784" y="241.371" width="16.254" height="16.254"/>
	</g>
</g>
<g>
	<g>
		<polygon points="45.918,446.171 45.918,273.879 29.664,273.879 29.664,463.238 218.21,463.238 218.21,446.171 		"/>
	</g>
</g>
<g>
	<g>
		<polygon points="251.53,36.571 251.53,52.825 423.822,52.825 423.822,225.117 440.076,225.117 440.076,36.571 		"/>
	</g>
</g>
<g>
</g>
<g>
</g>
<g>
</g>
<g>
</g>
<g>
</g>
<g>
</g>
<g>
</g>
<g>
</g>
<g>
</g>
<g>
</g>
<g>
</g>
<g>
</g>
<g>
</g>
<g>
</g>
<g>
</g>
</svg>
