<?xml version="1.0" encoding="utf-8"?>
<!-- Generator: Adobe Illustrator 19.2.0, SVG Export Plug-In . SVG Version: 6.00 Build 0)  -->
<svg version="1.1" id="Capa_1" xmlns="http://www.w3.org/2000/svg" xmlns:xlink="http://www.w3.org/1999/xlink" x="0px" y="0px"
	 viewBox="0 0 512 512" style="enable-background:new 0 0 512 512;" xml:space="preserve">
<style type="text/css">
	.st0{stroke:#000000;stroke-miterlimit:10;}
</style>
<path class="st0" d="M430.8,276.2v191.8c0,8.3-6.8,15.1-15.1,15.1h-11.6c-4.1,0-7.5,3.4-7.5,7.5s3.4,7.5,7.5,7.5h11.6
	c16.6,0,30.1-13.5,30.1-30.1V291.9l15.3,15.9c6.9,7.2,18.3,7.3,25.4,0.3l20.3-20.3c6.8-6.8,6.9-18,0.3-24.9L276.2,22.5
	c-11-11.5-29.4-11.5-40.5,0L4.9,262.8c-6.7,6.9-6.5,18.1,0.3,24.9L25.5,308c7,7,18.5,6.9,25.4-0.3l15.3-15.9v36.4
	c0,4.1,3.4,7.5,7.5,7.5c4.1,0,7.5-3.4,7.5-7.5v-52.1l169.1-176.1c3.1-3.2,8.3-3.2,11.4,0C396.5,240.5,369.8,212.7,430.8,276.2z
	 M496.2,277.1l-20.3,20.3c-1.3,1.1-2.6,1.1-4,0L272.5,89.8c0,0,0,0,0,0c0,0,0,0,0,0c-9-9.4-24-9.4-33,0L68.3,268c0,0,0,0,0,0
	l-28.2,29.3c-1.3,1.1-2.6,1.1-4,0l-20.3-20.3c-1.1-1.1-1.1-2.8,0-3.9L246.6,32.9c5.1-5.3,13.7-5.3,18.8,0l230.9,240.3
	C497.3,274.3,497.3,276,496.2,277.1L496.2,277.1z"/>
<path class="st0" d="M368.7,483.4h-44.5l0-106.4c0-37.7-29.8-89.8-67.5-89.8c-37.7,0-69.5,52-69.5,89.8l0,106.4H96
	c-8.3,0-15.1-6.8-15.1-15.1V363.6c0-4.1-3.4-7.5-7.5-7.5c-4.1,0-7.5,3.4-7.5,7.5v104.8c0,16.6,13.5,30.1,30.1,30.1h272.7
	c4.1,0,7.5-3.4,7.5-7.5S372.8,483.4,368.7,483.4L368.7,483.4z M204.2,376.5c0-29.5,23-71.2,52.5-71.2s51,42.8,51,72.2l1.4,105.9
	H202.3L204.2,376.5z"/>
</svg>
