<svg id="Layer_1" data-name="Layer 1" xmlns="http://www.w3.org/2000/svg" viewBox="0 0 1200 180"><defs><style>.cls-1{fill:#558cb8;}.cls-2{fill:#73be1e;}</style></defs><title>DG-logos</title><path class="cls-1" d="M829.23,49.3L688.79,130.38a3.48,3.48,0,0,0,0,6l2.61,1.51h0l55.38,32h0l5.34,3.09h0l2,1.18a6.31,6.31,0,0,0,6.31,0l2.48-1.43h0l68.12-39.33v-6.84l-1.89-4.23-71.86,41.49-10.54-6.08,84.28-48.66V101.8l-1.73-3.89-93.08,53.74-10.54-6.08L831.06,84.74V77.65l-1.8-4L715.17,139.48l-10.54-6.08,126.42-73v-7Z"/><path class="cls-2" d="M831.06,60.41v-8.5a6.35,6.35,0,0,0-3.18-5.5L762.95,8.92h0l-2.48-1.43a6.31,6.31,0,0,0-6.31,0l-2,1.18h0l-5.34,3.09h0l-10.54,6.08h0l-10.54,6.08h0L715.17,30h0l-3.63,2.1L691.4,43.72h0l-2.61,1.51a3.48,3.48,0,0,0,0,6L831.06,133.4v-8.62a6.15,6.15,0,0,0-3.07-5.32L704.64,48.24l10.54-6.08,115.89,66.91v-8.52a6.31,6.31,0,0,0-3.16-5.47l-102.2-59L736.24,30l94.82,54.74V76.21a6.31,6.31,0,0,0-3.15-5.46L746.78,23.91l10.54-6.08Z"/><path class="cls-1" d="M37.74,45.66H73c28.45,0,48.12,19.53,48.12,45v0.26c0,25.48-19.66,45.27-48.12,45.27H37.74V45.66Zm19.92,18v54.58H73c16.3,0,27.29-11,27.29-27V90.93c0-16-11-27.29-27.29-27.29H57.66Z"/><path class="cls-1" d="M156,100.5L121.18,45.66h23.28L166.06,82l22-36.34h22.64l-34.79,54.45V136.2H156V100.5Z"/><path class="cls-1" d="M223.11,45.66h18.37l42.42,55.75V45.66h19.66V136.2H286.61L242.77,78.65V136.2H223.11V45.66Z"/><path class="cls-1" d="M356.34,45h18.37l38.8,91.19H392.68l-8.28-20.31H346.12l-8.28,20.31H317.54Zm21,53.29-12-29.36-12,29.36h24.06Z"/><path class="cls-1" d="M427.49,45.66H449l23.8,38.28,23.8-38.28H518V136.2H498.24V77.09l-25.48,38.67h-0.52L447,77.48V136.2H427.49V45.66Z"/><path class="cls-1" d="M540.67,45.66h19.92V136.2H540.67V45.66Z"/><path class="cls-1" d="M579.22,91.19V90.93c0-25.74,19.4-46.82,47.21-46.82,17.07,0,27.29,5.69,35.7,14L649.45,72.7c-7-6.34-14.1-10.22-23.15-10.22C611,62.48,600,75.15,600,90.67v0.26c0,15.52,10.74,28.46,26.26,28.46,10.35,0,16.69-4.14,23.8-10.61l12.67,12.81c-9.31,10-19.66,16.17-37.12,16.17C599,137.76,579.22,117.19,579.22,91.19Z"/><path class="cls-2" d="M855.82,92V91.76c0-25.74,20-46.82,47.47-46.82,16.3,0,26.13,4.4,35.57,12.42L926.32,72.49c-7-5.82-13.19-9.18-23.67-9.18-14.49,0-26,12.81-26,28.2v0.26c0,16.56,11.38,28.71,27.42,28.71,7.24,0,13.71-1.81,18.75-5.43V102.11h-20V84.9H942.1v39.32a58.76,58.76,0,0,1-38.67,14.36C875.23,138.58,855.82,118.79,855.82,92Z"/><path class="cls-2" d="M961.25,46.49h41.39c11.51,0,20.43,3.23,26.39,9.18,5,5,7.76,12.16,7.76,20.69v0.26c0,14.62-7.89,23.8-19.4,28.07L1039.5,137h-23.28l-19.4-29H981.17v29H961.25V46.49Zm40.1,44c9.7,0,15.26-5.17,15.26-12.8V77.4c0-8.54-6-12.93-15.65-12.93H981.17v26h20.18Z"/><path class="cls-2" d="M1055.68,46.49h19.92V137h-19.92V46.49Z"/><path class="cls-2" d="M1098.24,46.49h35.31c28.45,0,48.12,19.53,48.12,45v0.26c0,25.48-19.66,45.27-48.12,45.27h-35.31V46.49Zm19.92,18v54.58h15.39c16.3,0,27.29-11,27.29-27V91.76c0-16-11-27.29-27.29-27.29h-15.39Z"/></svg>