<svg id="Layer_1" data-name="Layer 1" xmlns="http://www.w3.org/2000/svg" viewBox="0 0 300 300"><title>Dynamic Grid icons</title><path d="M206.24,176.47a3.31,3.31,0,0,0-3.31,3.31v56.38a6.49,6.49,0,0,1-6.48,6.48h-92.9a6.49,6.49,0,0,1-6.48-6.48V179.78a3.31,3.31,0,0,0-6.62,0v56.38a13.12,13.12,0,0,0,13.1,13.1h92.9a13.12,13.12,0,0,0,13.1-13.1V179.78a3.31,3.31,0,0,0-3.31-3.31h0Zm0,0" style="fill:#187e54"/><path d="M93.75,123.53a3.31,3.31,0,0,0,3.31-3.31V63.84a6.49,6.49,0,0,1,6.48-6.48h92.9a6.49,6.49,0,0,1,6.48,6.48v56.38a3.31,3.31,0,0,0,6.62,0V63.84a13.12,13.12,0,0,0-13.1-13.1h-92.9a13.12,13.12,0,0,0-13.1,13.1v56.38a3.31,3.31,0,0,0,3.31,3.31h0Zm0,0" style="fill:#187e54"/><path d="M150,77.21a33.08,33.08,0,1,0,33.09,33.09A33.09,33.09,0,0,0,150,77.21h0Zm0,59.55a26.47,26.47,0,1,1,26.47-26.47A26.47,26.47,0,0,1,150,136.77h0Zm0,0" style="fill:#187e54"/><path d="M150,163.24a3.31,3.31,0,0,0-3.31,3.31v13.24a3.31,3.31,0,0,0,6.62,0V166.54a3.31,3.31,0,0,0-3.31-3.31h0Zm0,0" style="fill:#187e54"/><path d="M140.07,199.63H126.84a3.31,3.31,0,1,0,0,6.62h13.23a3.31,3.31,0,0,0,0-6.62h0Zm0,0" style="fill:#187e54"/><path d="M173.16,199.63H159.93a3.31,3.31,0,1,0,0,6.62h13.23a3.31,3.31,0,0,0,0-6.62h0Zm0,0" style="fill:#187e54"/><path d="M163.23,110.3A13.23,13.23,0,1,1,150,97.06a3.31,3.31,0,1,0,0-6.62,19.85,19.85,0,1,0,19.85,19.85,3.31,3.31,0,1,0-6.62,0h0Zm0,0" style="fill:#187e54"/><path d="M239.33,183.09a9.84,9.84,0,0,0-4.26,1L215.2,164.2a3.31,3.31,0,0,0-2.34-1H196.32v-9.93H230a9.93,9.93,0,1,0,0-6.62H196.32v-9.93h16.54a3.31,3.31,0,0,0,2.34-1l19.88-19.87a9.79,9.79,0,0,0,4.25,1A9.93,9.93,0,1,0,229.4,107a9.77,9.77,0,0,0,1,4.25l-18.91,18.91H196.32V73a9,9,0,0,0-9-9H112.68a9,9,0,0,0-9,9v57.17H88.51L69.6,111.24a9.75,9.75,0,0,0,1-4.25,9.93,9.93,0,1,0-9.93,9.93,9.79,9.79,0,0,0,4.25-1L84.8,135.8a3.31,3.31,0,0,0,2.34,1h16.54v9.93H70a9.93,9.93,0,1,0,0,6.62h33.69v9.93H87.14a3.32,3.32,0,0,0-2.34,1L64.93,184.08a10,10,0,1,0,4.68,4.68l18.91-18.9h15.17V227a9,9,0,0,0,9,9h74.64a9,9,0,0,0,9-9V169.85h15.17l18.91,18.9a9.9,9.9,0,1,0,8.93-5.67h0Zm0-36.39A3.31,3.31,0,1,1,236,150a3.31,3.31,0,0,1,3.31-3.31h0Zm-3-41a3.28,3.28,0,1,1,.7,3.65v0l0,0a3.31,3.31,0,0,1-.66-3.57h0ZM63,109.31h0l0,0a2.48,2.48,0,1,1,.07,0h0Zm-2.36,44A3.31,3.31,0,1,1,64,150a3.31,3.31,0,0,1-3.31,3.31h0Zm3,41a3.28,3.28,0,1,1-.7-3.65v0.05l0,0a3.31,3.31,0,0,1,.66,3.57h0ZM189.7,227a2.39,2.39,0,0,1-2.38,2.38H112.68A2.39,2.39,0,0,1,110.3,227V73a2.38,2.38,0,0,1,2.38-2.38h74.64A2.38,2.38,0,0,1,189.7,73V227ZM240.2,196.2a3.31,3.31,0,0,1-3.23-5.51h0l0,0a3.3,3.3,0,1,1,3.16,5.54h0Zm0,0" style="fill:#187e54"/></svg>