<svg id="Layer_1" data-name="Layer 1" xmlns="http://www.w3.org/2000/svg" viewBox="0 0 300 300"><title>Dynamic Grid icons</title><path d="M150,135.1a3.73,3.73,0,1,0,3.73,3.73A3.74,3.74,0,0,0,150,135.1h0Zm0,0" style="fill:#187e54"/><path d="M238.11,225.35V142.56h3.73a3.73,3.73,0,0,0,0-7.47h-3.73v-3.73a11.21,11.21,0,0,0-11.2-11.2h-3.73v-3.73a11.22,11.22,0,0,0-7.47-10.56V94A3.73,3.73,0,0,0,212,90.29H197A3.73,3.73,0,0,0,193.31,94v11.84a11.22,11.22,0,0,0-7.47,10.56v3.73H114.16v-3.73a11.22,11.22,0,0,0-7.47-10.56V94A3.73,3.73,0,0,0,103,90.29H88A3.73,3.73,0,0,0,84.29,94v11.84a11.22,11.22,0,0,0-7.47,10.56v3.73H73.09a11.21,11.21,0,0,0-11.2,11.2v3.73H58.15a3.73,3.73,0,1,0,0,7.47h3.73v82.78a11.22,11.22,0,0,0-7.47,10.56v14.93a3.73,3.73,0,0,0,3.73,3.73H241.85a3.73,3.73,0,0,0,3.73-3.73V235.9a11.22,11.22,0,0,0-7.47-10.56h0ZM200.78,97.76h7.47v7.47h-7.47V97.76Zm-7.47,18.67a3.74,3.74,0,0,1,3.73-3.73H212a3.74,3.74,0,0,1,3.73,3.73v3.73h-22.4v-3.73ZM91.76,97.76h7.47v7.47H91.76V97.76Zm-7.47,18.67A3.74,3.74,0,0,1,88,112.69H103a3.74,3.74,0,0,1,3.73,3.73v3.73H84.29v-3.73ZM69.35,142.56h65.71a3.73,3.73,0,0,0,0-7.47H69.35v-3.73a3.74,3.74,0,0,1,3.73-3.73H226.91a3.74,3.74,0,0,1,3.73,3.73v3.73H164.93a3.73,3.73,0,0,0,0,7.47h65.71V224.7H69.35V142.56ZM238.11,247.1H61.89V235.9a3.74,3.74,0,0,1,3.73-3.73H234.38a3.74,3.74,0,0,1,3.73,3.73v11.2Zm0,0" style="fill:#187e54"/><path d="M182.11,90.29H157.47a3.73,3.73,0,0,0-3.34,2.06l-3.44,6.87-4.62-13.85a3.73,3.73,0,0,0-6.88-.49l-6.44,12.87H117.89a3.73,3.73,0,1,0,0,7.47h17.17a3.73,3.73,0,0,0,3.34-2.06l3.44-6.87,4.62,13.85a3.74,3.74,0,0,0,3.28,2.54H150a3.73,3.73,0,0,0,3.34-2.07l6.44-12.87h22.33a3.73,3.73,0,1,0,0-7.47h0Zm0,0" style="fill:#187e54"/><path d="M114.16,179.9H99.22a3.73,3.73,0,0,0,0,7.47h14.93a3.73,3.73,0,1,0,0-7.47h0Zm0,0" style="fill:#187e54"/><path d="M106.69,157.5a26.14,26.14,0,1,0,26.14,26.14,26.17,26.17,0,0,0-26.14-26.14h0Zm0,44.8a18.67,18.67,0,1,1,18.67-18.67,18.69,18.69,0,0,1-18.67,18.67h0Zm0,0" style="fill:#187e54"/><path d="M200.78,179.9H197v-3.73a3.73,3.73,0,0,0-7.47,0v3.73h-3.73a3.73,3.73,0,1,0,0,7.47h3.73v3.73a3.73,3.73,0,0,0,7.47,0v-3.73h3.73a3.73,3.73,0,1,0,0-7.47h0Zm0,0" style="fill:#187e54"/><path d="M193.31,157.5a26.14,26.14,0,1,0,26.14,26.14,26.17,26.17,0,0,0-26.14-26.14h0Zm0,44.8A18.67,18.67,0,1,1,212,183.63a18.69,18.69,0,0,1-18.67,18.67h0Zm0,0" style="fill:#187e54"/></svg>