<svg id="Layer_1" data-name="Layer 1" xmlns="http://www.w3.org/2000/svg" viewBox="0 0 300 300"><title>Dynamic Grid icons</title><path d="M272.93,130.43H161a11.69,11.69,0,0,0-7.32-7.32v-17h47.84a7.68,7.68,0,0,0,7.68-7.67V66.73a7.68,7.68,0,0,0-7.68-7.68H98.45a7.68,7.68,0,0,0-7.68,7.68V98.45a7.68,7.68,0,0,0,7.68,7.67h47.84v17a11.69,11.69,0,0,0-7.32,7.32H27.07a3.71,3.71,0,0,0,0,7.42H139a11.64,11.64,0,0,0,22.07,0H272.93a3.71,3.71,0,0,0,0-7.42h0Zm-119.22-64H174v4.22a3.71,3.71,0,0,0,7.42,0V66.47h20.08a0.25,0.25,0,0,1,.26.26V98.45a0.25,0.25,0,0,1-.26.25H181.47V86.55a3.71,3.71,0,1,0-7.42,0V98.71H153.71V66.47ZM118.53,98.71H98.45a0.25,0.25,0,0,1-.26-0.25V66.73a0.25,0.25,0,0,1,.26-0.26h20.08V98.71Zm27.76,0H126V66.47h20.34V98.71ZM150,138.36a4.22,4.22,0,1,1,4.22-4.22,4.23,4.23,0,0,1-4.22,4.22h0Zm0,0" style="fill:#187e54"/><path d="M269,201.29a7.68,7.68,0,0,0,7.68-7.68V161.9a7.68,7.68,0,0,0-7.68-7.68H165.86a7.68,7.68,0,0,0-7.68,7.68v31.72a7.68,7.68,0,0,0,7.68,7.68H213.7v17a11.7,11.7,0,0,0-7.32,7.32H93.62a11.69,11.69,0,0,0-7.32-7.32v-17h47.84a7.69,7.69,0,0,0,7.68-7.68V161.9a7.68,7.68,0,0,0-7.68-7.68H31a7.68,7.68,0,0,0-7.68,7.68v31.72A7.68,7.68,0,0,0,31,201.29H78.88v17a11.69,11.69,0,0,0-7.32,7.32H27.07a3.71,3.71,0,0,0,0,7.42H71.56a11.64,11.64,0,0,0,22.06,0H206.38a11.64,11.64,0,0,0,22.06,0h44.48a3.71,3.71,0,0,0,0-7.42H228.44a11.69,11.69,0,0,0-7.32-7.32v-17H269Zm-20.08-39.65H269a0.25,0.25,0,0,1,.26.26v31.72a0.25,0.25,0,0,1-.26.26H248.88V161.64Zm-27.76,0h20.34v32.23H221.12V161.64Zm-107.06,0h20.08a0.26,0.26,0,0,1,.26.26v31.72a0.26,0.26,0,0,1-.26.26H114.06V161.64Zm-27.76,0h20.34v32.23H86.3V161.64ZM58.54,193.87v-4.22a3.71,3.71,0,0,0-7.42,0v4.22H31a0.25,0.25,0,0,1-.26-0.26V161.9a0.25,0.25,0,0,1,.26-0.26H51.12v12.15a3.71,3.71,0,0,0,7.42,0V161.64H78.88v32.23H58.54Zm28.27,35.43h0a4.22,4.22,0,1,1-4.22-4.23,4.23,4.23,0,0,1,4.22,4.23h0Zm99.13-35.43H165.86a0.26,0.26,0,0,1-.26-0.26V161.9a0.26,0.26,0,0,1,.26-0.26h20.08v32.23Zm7.42,0V161.64H213.7v32.23H193.36Zm28.27,35.43a4.22,4.22,0,0,1-8.44,0h0a4.22,4.22,0,0,1,8.44,0h0Zm0,0" style="fill:#187e54"/></svg>