<?xml version="1.0" encoding="utf-8"?>
<!-- Generator: Adobe Illustrator 19.2.0, SVG Export Plug-In . SVG Version: 6.00 Build 0)  -->
<svg version="1.1" id="Layer_1" xmlns="http://www.w3.org/2000/svg" xmlns:xlink="http://www.w3.org/1999/xlink" x="0px" y="0px"
	 viewBox="0 0 512 512" style="enable-background:new 0 0 512 512;" xml:space="preserve">
<style type="text/css">
	.st0{stroke:#000000;stroke-miterlimit:10;}
</style>
<path d="M102.8,333.9l-7.4,4.3c-4.1,2.4-5.5,7.6-3.1,11.7c1.6,2.7,4.4,4.3,7.4,4.3c1.5,0,2.9-0.4,4.3-1.1l7.4-4.3
	c4.1-2.4,5.5-7.6,3.1-11.7C112.1,332.9,106.8,331.5,102.8,333.9z"/>
<path d="M172.7,396.9c-4.1-2.4-9.3-1-11.7,3.1l-4.3,7.4c-2.4,4.1-1,9.3,3.1,11.7c1.3,0.8,2.8,1.1,4.3,1.1c3,0,5.8-1.5,7.4-4.3
	l4.3-7.4C178.2,404.4,176.8,399.2,172.7,396.9z"/>
<path d="M112,161.1l-7.4-4.3c-4.1-2.4-9.3-1-11.7,3.1c-2.4,4.1-1,9.3,3.1,11.7l7.4,4.3c1.3,0.8,2.8,1.1,4.3,1.1c3,0,5.8-1.5,7.4-4.3
	C117.5,168.7,116.1,163.4,112,161.1z"/>
<path d="M110.9,256c0-4.7-3.8-8.5-8.5-8.5H76.8c-4.7,0-8.5,3.8-8.5,8.5c0,4.7,3.8,8.5,8.5,8.5h25.6
	C107.1,264.5,110.9,260.7,110.9,256z"/>
<path d="M256,34.1C133.7,34.1,34.1,133.7,34.1,256S133.7,477.9,256,477.9S477.9,378.3,477.9,256S378.3,34.1,256,34.1z M256,460.8
	c-112.9,0-204.8-91.9-204.8-204.8S143.1,51.2,256,51.2S460.8,143.1,460.8,256S368.9,460.8,256,460.8z"/>
<path d="M339.3,115.1c1.3,0.8,2.8,1.1,4.3,1.1c3,0,5.8-1.5,7.4-4.3l4.3-7.4c2.4-4.1,1-9.3-3.1-11.7c-4.1-2.4-9.3-1-11.7,3.1
	l-4.3,7.4C333.8,107.6,335.2,112.8,339.3,115.1z"/>
<path d="M405,179.3c1.5,0,2.9-0.4,4.3-1.1l7.4-4.3c4.1-2.4,5.5-7.6,3.1-11.7c-2.4-4.1-7.6-5.5-11.7-3.1l-7.4,4.3
	c-4.1,2.4-5.5,7.6-3.1,11.7C399.2,177.7,402,179.3,405,179.3z"/>
<path class="st0" d="M469.3,0H42.7C19.1,0,0,19.1,0,42.7v426.7C0,492.9,19.1,512,42.7,512h392.5c4.7,0,8.5-3.8,8.5-8.5
	s-3.8-8.5-8.5-8.5H42.7c-14.1,0-25.6-11.5-25.6-25.6V42.7c0-14.1,11.5-25.6,25.6-25.6h426.7c14.1,0,25.6,11.5,25.6,25.6v426.7
	c0,14.1-11.5,25.6-25.6,25.6c-4.7,0-8.5,3.8-8.5,8.5s3.8,8.5,8.5,8.5c23.5,0,42.7-19.1,42.7-42.7V42.7C512,19.1,492.9,0,469.3,0z"/>
<path d="M415.9,340.4l-7.4-4.3c-4.1-2.4-9.3-1-11.7,3.1c-2.4,4.1-1,9.3,3.1,11.7l7.4,4.3c1.3,0.8,2.8,1.1,4.3,1.1
	c3,0,5.8-1.5,7.4-4.3C421.4,348,420,342.8,415.9,340.4z"/>
<path d="M375.5,247.5H280c-2.6-7.2-8.3-12.9-15.5-15.5V76.8c0-4.7-3.8-8.5-8.5-8.5s-8.5,3.8-8.5,8.5V232
	c-7.2,2.6-12.9,8.3-15.5,15.5h-10.1c-4.7,0-8.5,3.8-8.5,8.5c0,4.7,3.8,8.5,8.5,8.5H232c2.6,7.2,8.3,12.9,15.5,15.5v10.1
	c0,4.7,3.8,8.5,8.5,8.5c4.7,0,8.5-3.8,8.5-8.5V280c7.2-2.6,12.9-8.3,15.5-15.5h95.4c4.7,0,8.5-3.8,8.5-8.5S380.2,247.5,375.5,247.5z
	 M256,264.5c-4.7,0-8.5-3.8-8.5-8.5c0-4.7,3.8-8.5,8.5-8.5c4.7,0,8.5,3.8,8.5,8.5S260.7,264.5,256,264.5z"/>
<path d="M435.2,247.5h-25.6c-4.7,0-8.5,3.8-8.5,8.5c0,4.7,3.8,8.5,8.5,8.5h25.6c4.7,0,8.5-3.8,8.5-8.5
	C443.7,251.3,439.9,247.5,435.2,247.5z"/>
<path d="M256,401.1c-4.7,0-8.5,3.8-8.5,8.5v25.6c0,4.7,3.8,8.5,8.5,8.5c4.7,0,8.5-3.8,8.5-8.5v-25.6
	C264.5,404.9,260.7,401.1,256,401.1z"/>
<path d="M348.7,400.7c-2.4-4.1-7.6-5.5-11.7-3.1c-4.1,2.4-5.5,7.6-3.1,11.7l4.3,7.4c1.6,2.7,4.4,4.3,7.4,4.3c1.5,0,2.9-0.4,4.3-1.2
	c4.1-2.3,5.5-7.6,3.1-11.6L348.7,400.7z"/>
<path d="M173.9,95.4c-2.4-4.1-7.6-5.5-11.7-3.1c-4.1,2.4-5.5,7.6-3.1,11.7l4.3,7.4c1.6,2.7,4.4,4.3,7.4,4.3c1.5,0,2.9-0.4,4.3-1.1
	c4.1-2.4,5.5-7.6,3.1-11.7L173.9,95.4z"/>
</svg>
