<?xml version="1.0" encoding="UTF-8"?>
<svg width="33px" height="32px" viewBox="0 0 33 32" version="1.1" xmlns="http://www.w3.org/2000/svg" xmlns:xlink="http://www.w3.org/1999/xlink">
    <title>Shape</title>
    <g id="Operations-4:--Generator-covering-load-and-charging-battery-Copy" stroke="none" stroke-width="1" fill="none" fill-rule="evenodd">
        <g id="Retina-Std" transform="translate(-580.000000, -818.000000)">
            <g id="Load" transform="translate(447.000000, 768.000000)">
                <path d="M161.134101,55.5586108 C158.128818,52.0871722 153.611223,50 149.014303,50 C140.357374,50 133,57.382836 133,66.0145476 C133,73.0994259 137.750673,79.4238636 144.553753,81.3947417 C147.518394,82.1505306 150.516332,82.2514004 153.474853,81.3947417 C160.277443,79.4248429 165.028606,73.1001604 165.028606,66.0145476 C165.028606,62.237072 163.628915,58.4407446 161.134101,55.5586108 Z M147.137439,78.2124469 L149.014303,65.8617739 L150.891166,78.2124469 C149.648901,78.4039036 148.379704,78.4039036 147.137439,78.2124469 Z M154.436543,77.0994516 C154.436543,77.0994516 152.424779,63.8637197 152.420862,63.8426644 C152.108214,62.1788026 150.707054,61.0168414 149.014058,61.0168414 C147.320817,61.0168414 145.919902,62.1790474 145.607254,63.8426644 C145.603337,63.8637197 143.591572,77.0994516 143.591572,77.0994516 C139.432652,75.0556143 136.671954,70.756162 136.671954,66.0145476 C136.671954,63.7175565 137.304594,61.5664838 138.40192,59.7229171 L139.600361,60.9213579 C140.308897,61.6301395 141.488486,61.6301395 142.197023,60.9213579 C142.914129,60.204252 142.914129,59.0415563 142.197023,58.3246953 L140.738818,56.8664904 C142.499877,55.2719153 144.721461,54.1780168 147.177836,53.8100379 L147.177836,56.3572448 C147.177836,57.371329 147.999974,58.1934667 149.014058,58.1934667 C150.028142,58.1934667 150.85028,57.371329 150.85028,56.3572448 L150.85028,53.8097931 C153.30641,54.1777719 155.528239,55.2716705 157.289298,56.8662455 L155.831093,58.3244505 C155.113987,59.0415563 155.113987,60.204252 155.831093,60.921113 C156.540119,61.6298947 157.719463,61.6298947 158.428,60.921113 L159.626441,59.7226722 C160.723767,61.5664838 161.356162,63.7175565 161.356162,66.0143028 C161.356162,70.756162 158.595708,75.0556143 154.436543,77.0994516 Z" id="Shape" fill="#000000" fill-rule="nonzero"></path>
                <text id="Currently-powered-by" font-family="Roboto-Medium, Roboto" font-size="23" font-weight="400" fill="#000A12">
                    <tspan x="0" y="98"></tspan>
                    <tspan x="0" y="125">CURRENTLY POWERED BY </tspan>
                    <tspan x="0" y="152">SOLAR AND GENERATOR</tspan>
                    <tspan x="0" y="179"></tspan>
                </text>
            </g>
        </g>
    </g>
</svg>