<?xml version="1.0" encoding="UTF-8"?>
<svg width="32px" height="33px" viewBox="0 0 32 33" version="1.1" xmlns="http://www.w3.org/2000/svg" xmlns:xlink="http://www.w3.org/1999/xlink">
    <title>sun (1)</title>
    <g id="Operations-4:--Generator-covering-load-and-charging-battery-Copy" stroke="none" stroke-width="1" fill="none" fill-rule="evenodd">
        <g id="Retina-Std" transform="translate(-542.000000, -818.000000)">
            <g id="Load" transform="translate(447.000000, 768.000000)">
                <g id="sun-(1)" transform="translate(95.000000, 50.000000)" fill="#000000" fill-rule="nonzero">
                    <path d="M31.8916064,21.0603943 L28.518148,16.4907068 L31.8916064,11.9212774 C32.0039128,11.76155 32.0286583,11.5836234 31.9664335,11.3871749 C31.9160893,11.2026655 31.7912461,11.0798529 31.59151,11.0185434 L26.1197401,9.24973208 L26.1197401,3.61138773 C26.1197401,3.41493918 26.0382179,3.2552118 25.8755016,3.13246372 C25.6884337,3.00971565 25.506945,2.98506278 25.3324139,3.05869871 L19.8603814,4.7905953 L16.4871856,0.221165956 C16.3746823,0.0737650096 16.2123598,0 15.9998244,0 C15.7875515,0 15.6251634,0.0739586185 15.5126601,0.221165956 L12.1392674,4.79065983 L6.66716928,3.05876325 C6.49244127,2.98506278 6.31114947,3.00971565 6.12368771,3.13252826 C5.96129961,3.25534087 5.88010557,3.41500372 5.88010557,3.61145226 L5.88010557,9.24973208 L0.408073135,11.0185434 C0.208271454,11.0800465 0.0833625846,11.2028592 0.0334121644,11.3871749 C-0.0289438135,11.5836234 -0.0040670602,11.7616146 0.108436251,11.9212774 L3.4816321,16.4907068 L0.108436251,21.0603943 C-0.0040670602,21.2076661 -0.0289438135,21.3857218 0.0334121644,21.5946259 C0.0832969467,21.7783608 0.208271454,21.901367 0.408073135,21.9632573 L5.88010557,23.7320041 L5.88010557,29.3701549 C5.88010557,29.5665389 5.96129961,29.7264599 6.12368771,29.849208 C6.31114947,29.9720206 6.49244127,29.9965444 6.66716928,29.9230375 L12.1392674,28.1910764 L15.5126601,32.7605703 C15.6375033,32.9200395 15.7999571,33 15.9998244,33 C16.1996917,33 16.3622767,32.9200395 16.48712,32.7605703 L19.8603158,28.1910764 L25.3326108,29.9230375 C25.5071419,29.9968025 25.6884337,29.9720851 25.8755016,29.849208 C26.0382179,29.7264599 26.1197401,29.5665389 26.1197401,29.3701549 L26.1197401,23.7320041 L31.59151,21.9632573 C31.7912461,21.9016251 31.9160893,21.7786189 31.9664335,21.5946259 C32.0291177,21.3857218 32.0039128,21.2076661 31.8916064,21.0603943 Z M25.9417959,20.6089627 C25.3733063,21.9171139 24.6050806,23.0471448 23.6369877,23.9993136 C22.6686321,24.9511597 21.5194443,25.7066864 20.1887677,26.2656999 C18.8585506,26.8243908 17.4621049,27.1040267 16.0003495,27.1040267 C14.5385941,27.1040267 13.1426735,26.8243908 11.8119969,26.2656999 C10.4815173,25.7064927 9.33206686,24.9511597 8.36390826,23.9993136 C7.39574966,23.0471448 6.62745837,21.9170493 6.05890313,20.6089627 C5.49047916,19.3006825 5.20626718,17.9280596 5.20626718,16.4907068 C5.20626718,15.053483 5.4905448,13.6809892 6.05890313,12.3726444 C6.62719582,11.0644933 7.39574966,9.93439786 8.36390826,8.98229358 C9.33226378,8.03044745 10.4815173,7.27485626 11.8119969,6.71610083 C13.1424766,6.15702272 14.5385941,5.87777408 16.0003495,5.87777408 C17.4618423,5.87777408 18.8585506,6.15702272 20.1887677,6.71610083 C21.5194443,7.27485626 22.6686321,8.03044745 23.6369877,8.98229358 C24.6050806,9.93439786 25.3733063,11.0644933 25.9417959,12.3726444 C26.5100886,13.6809892 26.7944975,15.0536766 26.7944975,16.4907068 C26.7944975,17.9280596 26.5098917,19.300618 25.9417959,20.6089627 Z" id="Shape"></path>
                </g>
                <text id="Currently-powered-by" font-family="Roboto-Medium, Roboto" font-size="23" font-weight="400" fill="#000A12">
                    <tspan x="0" y="98"></tspan>
                    <tspan x="0" y="125">CURRENTLY POWERED BY </tspan>
                    <tspan x="0" y="152">SOLAR AND GENERATOR</tspan>
                    <tspan x="0" y="179"></tspan>
                </text>
            </g>
        </g>
    </g>
</svg>