<?xml version="1.0" encoding="utf-8"?>
<!-- Generator: Adobe Illustrator 19.2.0, SVG Export Plug-In . SVG Version: 6.00 Build 0)  -->
<svg version="1.1" id="Capa_1" xmlns="http://www.w3.org/2000/svg" xmlns:xlink="http://www.w3.org/1999/xlink" x="0px" y="0px"
	 viewBox="0 0 512 512" style="enable-background:new 0 0 512 512;" xml:space="preserve">
<path d="M356.1,246.3c1.5,1.5,3.4,2.2,5.3,2.2s3.8-0.7,5.3-2.2c31.7-31.7,31.7-83.3,0-115c-2.9-2.9-7.7-2.9-10.6,0s-2.9,7.7,0,10.6
	c12.5,12.5,19.4,29.2,19.4,46.9c0,17.7-6.9,34.4-19.4,46.9C353.2,238.7,353.2,243.4,356.1,246.3L356.1,246.3z M155.9,131.3
	c-2.9-2.9-7.7-2.9-10.6,0c-31.7,31.7-31.7,83.3,0,115c1.5,1.5,3.4,2.2,5.3,2.2s3.8-0.7,5.3-2.2c2.9-2.9,2.9-7.7,0-10.6
	c-12.5-12.5-19.4-29.2-19.4-46.9s6.9-34.4,19.4-46.9C158.8,139,158.8,134.3,155.9,131.3L155.9,131.3z M200.3,149.6
	c-2.9-2.9-7.7-2.9-10.6,0c-10.5,10.5-16.2,24.4-16.2,39.2s5.8,28.7,16.2,39.2c1.5,1.5,3.4,2.2,5.3,2.2s3.8-0.7,5.3-2.2
	c2.9-2.9,2.9-7.7,0-10.6c-7.6-7.6-11.8-17.8-11.8-28.6s4.2-21,11.8-28.6C203.2,157.3,203.2,152.6,200.3,149.6z M311.7,228
	c1.5,1.5,3.4,2.2,5.3,2.2s3.8-0.7,5.3-2.2c10.5-10.5,16.2-24.4,16.2-39.2s-5.8-28.7-16.2-39.2c-2.9-2.9-7.7-2.9-10.6,0
	s-2.9,7.7,0,10.6c7.6,7.6,11.8,17.8,11.8,28.6s-4.2,21-11.8,28.6C308.8,220.3,308.8,225.1,311.7,228L311.7,228z M353.3,457
	l-87.1-236.4c13.4-4.3,23.2-16.9,23.2-31.8c0-18.4-15-33.4-33.4-33.4s-33.4,15-33.4,33.4c0,14.8,9.8,27.4,23.2,31.8L158.7,457
	 M314.9,396.3L266.4,346l21.7-22.5L314.9,396.3z M237.6,188.8c0-10.1,8.2-18.4,18.4-18.4s18.4,8.2,18.4,18.4s-8.2,18.4-18.4,18.4
	S237.6,198.9,237.6,188.8z M256,236.4l26.3,71.5L256,335.2l-26.3-27.3L256,236.4z M223.9,323.5l21.7,22.5l-48.5,50.3L223.9,323.5z
	 M256,356.8l60.6,62.9H195.4L256,356.8z M175,457 M183.3,435.6c48.7,0,97.4,0,146.1,0l7.9,21.5c-54,0-108,0-162,0"/>
</svg>
